<svg xmlns="http://www.w3.org/2000/svg" viewBox="0 0 512 512" fill="none">
  <path d="M371.5 213.2V156c16.7-9.2 28-27.1 28-47.7 0-30.1-24.4-54.5-54.5-54.5s-54.5 24.4-54.5 54.5c0 20.6 11.3 38.5 28 47.7v57.2c-24.8 5.8-47.3 17.6-66.1 34.1L128.8 152c1.8-5.9 2.9-12.1 2.9-18.6C131.7 101 106.7 76 74.3 76S17 101 17 133.4s25 57.4 57.4 57.4c10.2 0 19.8-2.7 28.1-7.5l121.8 93.5c-15.6 22.6-24.7 50-24.7 79.5 0 77.1 62.5 139.7 139.6 139.7s139.7-62.5 139.7-139.7c0-70.8-52.8-129.3-121.4-138.1zm-26.5 225c-48.2 0-87.3-39.1-87.3-87.3s39.1-87.3 87.3-87.3 87.3 39.1 87.3 87.3-39.1 87.3-87.3 87.3z" fill="#ff7a59"/>
</svg>
