<svg xmlns="http://www.w3.org/2000/svg" viewBox="0 0 512 512" fill="none">
  <path d="M213.4 137.4c20.1-21.1 48.2-34.2 79.3-34.2 41.5 0 77.8 23.2 96.3 57.3 16.1-7.1 33.8-11 52.5-11 71.6 0 129.6 58 129.6 129.6s-58 129.6-129.6 129.6c-12.3 0-24.2-1.7-35.5-4.9-15.8 27.7-45.6 46.3-79.8 46.3-17.1 0-33.2-4.7-47-12.9-17.1 36.3-53.8 61.5-96.4 61.5-42.4 0-79-24.9-96.2-60.8C41.1 425.7 5.3 381.1 5.3 328.2c0-49.1 30.6-91 73.8-107.7-4.8-13.5-7.5-28.1-7.5-43.3C71.6 89.5 143.1 18 230.8 18c54.2 0 102 27.2 130.6 68.6" fill="#00a1e0"/>
</svg>
