<svg xmlns="http://www.w3.org/2000/svg" viewBox="0 0 512 512" fill="none">
  <path d="M357.5 256l98.3-98.3c12.5-12.5 12.5-32.8 0-45.3l-56.2-56.2c-12.5-12.5-32.8-12.5-45.3 0L256 154.5 157.7 56.2c-12.5-12.5-32.8-12.5-45.3 0L56.2 112.4c-12.5 12.5-12.5 32.8 0 45.3L154.5 256 56.2 354.3c-12.5 12.5-12.5 32.8 0 45.3l56.2 56.2c12.5 12.5 32.8 12.5 45.3 0L256 357.5l98.3 98.3c12.5 12.5 32.8 12.5 45.3 0l56.2-56.2c12.5-12.5 12.5-32.8 0-45.3L357.5 256z" fill="#ff4a00"/>
  <circle cx="256" cy="256" r="64" fill="white"/>
</svg>
